<svg width="800" height="600" viewBox="0 0 800 600" fill="none" xmlns="http://www.w3.org/2000/svg">
  <path d="M180 370C220 320 320 320 360 370" stroke="#D6DBE7" stroke-width="3" stroke-dasharray="10 14" stroke-linecap="round"/>
  <path d="M460 180C520 130 610 150 650 220" stroke="#D6DBE7" stroke-width="3" stroke-dasharray="10 14" stroke-linecap="round"/>
  <path d="M560 360C630 330 700 350 730 400" stroke="#D6DBE7" stroke-width="3" stroke-dasharray="10 14" stroke-linecap="round"/>

  <circle cx="165" cy="290" r="10" stroke="#B8C0D4" stroke-width="4"/>
  <circle cx="645" cy="320" r="10" stroke="#B8C0D4" stroke-width="4"/>
  <path d="M115 470L135 490" stroke="#B8C0D4" stroke-width="4" stroke-linecap="round"/>
  <path d="M135 470L115 490" stroke="#B8C0D4" stroke-width="4" stroke-linecap="round"/>
  <path d="M690 430L710 450" stroke="#B8C0D4" stroke-width="4" stroke-linecap="round"/>
  <path d="M710 430L690 450" stroke="#B8C0D4" stroke-width="4" stroke-linecap="round"/>

  <rect x="280" y="170" width="320" height="280" rx="24" fill="#F9FBFF" stroke="#7E8AA8" stroke-width="4"/>
  <path d="M280 230H600" stroke="#7E8AA8" stroke-width="4"/>
  <circle cx="320" cy="200" r="10" fill="#FF8A8A"/>
  <circle cx="355" cy="200" r="10" fill="#FFD27A"/>
  <circle cx="390" cy="200" r="10" fill="#5ED1A5"/>

  <circle cx="430" cy="340" r="42" stroke="#7E8AA8" stroke-width="6"/>
  <path d="M462 372L490 400" stroke="#7E8AA8" stroke-width="6" stroke-linecap="round"/>

  <g transform="rotate(-6 220 410)">
    <path d="M150 310L240 310L290 360L290 500L150 500Z"
      fill="#F9FBFF"
      stroke="#7E8AA8"
      stroke-width="4"
      stroke-linejoin="round"/>
    <path d="M240 310V360H290"
      stroke="#7E8AA8"
      stroke-width="4"
      stroke-linejoin="round"/>
    <circle cx="200" cy="405" r="7" fill="#7E8AA8"/>
    <circle cx="245" cy="405" r="7" fill="#7E8AA8"/>
    <path d="M195 455C205 435 240 435 250 455"
      stroke="#7E8AA8"
      stroke-width="5"
      stroke-linecap="round"/>
  </g>

  <g>
    <circle cx="585" cy="420" r="85" fill="#F9FBFF" stroke="#7E8AA8" stroke-width="5"/>
    <circle cx="585" cy="420" r="6" fill="#7E8AA8"/>

    <rect x="555" y="308" width="60" height="24" rx="6" fill="#F9FBFF" stroke="#7E8AA8" stroke-width="5"/>
    <rect x="640" y="332" width="18" height="38" rx="5"
      transform="rotate(45 640 332)"
      fill="#F9FBFF"
      stroke="#7E8AA8"
      stroke-width="5"/>

    <path d="M585 352V366" stroke="#B8C0D4" stroke-width="4" stroke-linecap="round"/>
    <path d="M585 474V488" stroke="#B8C0D4" stroke-width="4" stroke-linecap="round"/>
    <path d="M517 420H531" stroke="#B8C0D4" stroke-width="4" stroke-linecap="round"/>
    <path d="M639 420H653" stroke="#B8C0D4" stroke-width="4" stroke-linecap="round"/>

    <path d="M585 420L620 385" stroke="#4E5D82" stroke-width="6" stroke-linecap="round"/>
    <path d="M585 420L602 402" stroke="#4E5D82" stroke-width="6" stroke-linecap="round"/>
  </g>
</svg>
